<?xml version="1.0" encoding="UTF-8" standalone="no"?>
<!DOCTYPE svg PUBLIC "-//W3C//DTD SVG 1.1//EN" "http://www.w3.org/Graphics/SVG/1.1/DTD/svg11.dtd">
<svg width="100%" height="100%" viewBox="0 0 44 28" version="1.1" xmlns="http://www.w3.org/2000/svg" xmlns:xlink="http://www.w3.org/1999/xlink" xml:space="preserve" xmlns:serif="http://www.serif.com/" style="fill-rule:evenodd;clip-rule:evenodd;stroke-linejoin:round;stroke-miterlimit:2;">
    <g transform="matrix(1,0,0,1,-90,0)">
        <g id="Maximized" transform="matrix(1.25714,0,0,0.933333,90,0)">
            <rect x="0" y="0" width="35" height="30" style="fill:none;"/>
            <g transform="matrix(0.795455,0,0,1.07143,-71.5909,0)">
                <path d="M107,19L107,11L109,11L109,9L117,9L117,17L115,17L115,19L107,19ZM108,12L114,12L114,18L108,18L108,12ZM110,10L116,10L116,16L115,16L115,11L110,11L110,10Z"/>
            </g>
        </g>
    </g>
</svg>
