<?xml version="1.0" encoding="UTF-8" standalone="no"?>
<!DOCTYPE svg PUBLIC "-//W3C//DTD SVG 1.1//EN" "http://www.w3.org/Graphics/SVG/1.1/DTD/svg11.dtd">
<svg width="100%" height="100%" viewBox="0 0 35 30" version="1.1" xmlns="http://www.w3.org/2000/svg" xmlns:xlink="http://www.w3.org/1999/xlink" xml:space="preserve" xmlns:serif="http://www.serif.com/" style="fill-rule:evenodd;clip-rule:evenodd;stroke-linejoin:round;stroke-miterlimit:2;">
    <g id="Pin" transform="matrix(0.777778,0,0,1,0,0)">
        <rect x="0" y="0" width="45" height="30" style="fill-opacity:0;"/>
        <g transform="matrix(1.28571,0,0,1,-90,0)">
            <path d="M87,16L87,19.502L87.498,20L87.502,20L88,19.502L88,16L90.024,16C90.283,16 90.531,15.897 90.714,15.714C90.897,15.531 91,15.283 91,15.024C91,15.008 91,14.992 91,14.976C91,14.437 90.563,14 90.024,14C89.894,14 89.769,14 89.662,14C89.577,14 89.495,13.966 89.435,13.906C89.374,13.845 89.34,13.763 89.34,13.678C89.34,13.06 89.34,11.724 89.34,11.208C89.34,11.153 89.362,11.1 89.401,11.061C89.44,11.022 89.493,11 89.549,11C89.556,11 89.563,11 89.571,11C89.808,11 90,10.808 90,10.571C90,10.524 90,10.476 90,10.429C90,10.192 89.808,10 89.571,10C88.626,10 86.374,10 85.429,10C85.192,10 85,10.192 85,10.429C85,10.476 85,10.524 85,10.571C85,10.808 85.192,11 85.429,11C85.437,11 85.444,11 85.451,11C85.507,11 85.56,11.022 85.599,11.061C85.638,11.1 85.66,11.153 85.66,11.208C85.66,11.724 85.66,13.06 85.66,13.678C85.66,13.763 85.626,13.845 85.565,13.906C85.505,13.966 85.423,14 85.338,14C85.231,14 85.106,14 84.976,14C84.437,14 84,14.437 84,14.976C84,14.992 84,15.008 84,15.024C84,15.283 84.103,15.531 84.286,15.714C84.469,15.897 84.717,16 84.976,16L87,16Z" fill="currentColor"/>
        </g>
    </g>
</svg>
